<?xml version="1.0"?>
<svg xmlns="http://www.w3.org/2000/svg" xmlns:xlink="http://www.w3.org/1999/xlink" xmlns:svgjs="http://svgjs.com/svgjs" version="1.1" width="512" height="512" x="0" y="0" viewBox="0 0 511.5 511.5" style="enable-background:new 0 0 512 512" xml:space="preserve" class=""><g><g xmlns="http://www.w3.org/2000/svg"><path d="m431.67 117.274c-34.158-11.538-61.493-38.644-73.121-72.509-1.604-4.67-5.98-7.808-10.89-7.808h-183.817c-4.909 0-9.285 3.138-10.89 7.809-11.628 33.864-38.963 60.97-73.12 72.507-4.704 1.588-7.864 5.972-7.864 10.908v87.138c0 59.381 18.837 115.86 54.475 163.331 31.479 41.932 75.979 75.078 125.303 93.332 2.582.955 5.426.955 8.007 0 42.682-15.796 81.242-42.224 111.511-76.426 2.745-3.102 2.456-7.842-.646-10.587-3.103-2.746-7.843-2.456-10.587.646-28.352 32.036-64.388 56.86-104.282 71.851-46.175-17.357-87.798-48.507-117.311-87.821-33.673-44.854-51.471-98.219-51.471-154.326v-84.649c36.665-13.169 66.067-42.336 79.349-78.714h178.866c13.282 36.378 42.684 65.545 79.349 78.714v84.649c0 51.166-14.981 100.562-43.323 142.848-2.306 3.441-1.387 8.1 2.054 10.406 3.441 2.307 8.1 1.387 10.406-2.054 30.004-44.765 45.863-97.049 45.863-151.199v-87.138c.001-4.936-3.159-9.32-7.861-10.908zm-198.42 185.134c0 12.407 10.093 22.5 22.5 22.5s22.5-10.093 22.5-22.5v-19.663c2.948-4.43 4.5-9.563 4.5-14.924 0-7.397-3.085-14.553-8.464-19.633-5.456-5.152-12.599-7.749-20.112-7.322-13.277.76-24.162 11.315-25.319 24.551-.537 6.139 1.02 12.243 4.395 17.327zm10.549-35.685c.512-5.866 5.342-10.543 11.233-10.881.24-.014.479-.021.717-.021 3.085 0 5.988 1.147 8.238 3.273 2.427 2.292 3.763 5.391 3.763 8.727 0 2.573-.803 5.024-2.321 7.091-1.425 1.939-2.179 4.267-2.179 6.73v20.765c0 4.136-3.364 7.5-7.5 7.5s-7.5-3.364-7.5-7.5v-20.766c0-2.461-.754-4.79-2.181-6.732-1.217-1.657-2.6-4.423-2.27-8.186zm217.253-180.669c-37.301-3.795-67.167-33.379-71.014-70.346-.933-8.955-8.412-15.708-17.4-15.708h-233.776c-8.987 0-16.467 6.753-17.398 15.708-3.848 36.966-33.714 66.551-71.015 70.346-8.974.913-15.742 8.394-15.742 17.402v111.864c0 66.815 21.055 130.481 60.889 184.115 19.165 25.805 42.129 48.449 68.254 67.302 26.448 19.087 55.556 33.863 86.516 43.917 3.472 1.128 7.297 1.128 10.769 0 30.959-10.055 60.067-24.831 86.515-43.917 26.125-18.854 49.089-41.497 68.254-67.302 39.834-53.634 60.889-117.3 60.889-184.115v-111.864c0-9.008-6.767-16.49-15.741-17.402zm.741 129.266c0 63.57-20.032 124.143-57.931 175.172-37.163 50.038-88.12 86.656-147.361 105.896-.484.157-1.018.157-1.502 0-59.242-19.24-110.199-55.858-147.361-105.896-37.898-51.029-57.931-111.602-57.931-175.172v-111.864c0-1.283.971-2.349 2.26-2.479 44.334-4.51 79.836-39.718 84.416-83.716.134-1.289 1.2-2.261 2.479-2.261h233.776c1.279 0 2.345.972 2.479 2.261 4.58 43.998 40.082 79.206 84.417 83.716 1.288.131 2.259 1.197 2.259 2.479zm-266.857-88.502c2.206-3.506 1.152-8.136-2.354-10.342-3.506-2.207-8.137-1.151-10.342 2.354-8.688 13.809-13.28 29.75-13.28 46.1v41.715c-11.451 6.426-19.21 18.681-19.21 32.72v87c0 20.678 16.822 37.5 37.5 37.5h137c20.678 0 37.5-16.822 37.5-37.5v-87c0-14.039-7.759-26.293-19.21-32.72v-41.715c0-47.856-38.934-86.79-86.79-86.79-16.528 0-32.616 4.685-46.525 13.549-3.493 2.226-4.52 6.862-2.294 10.355 2.227 3.493 6.862 4.521 10.355 2.294 11.496-7.326 24.796-11.198 38.463-11.198 39.585 0 71.79 32.205 71.79 71.79v37.088c-1.085-.095-2.181-.153-3.29-.153h-11.71v-36.935c0-15.171-5.908-29.435-16.64-40.167-10.732-10.72-24.991-16.624-40.15-16.624-31.314 0-56.79 25.476-56.79 56.79v36.935h-11.71c-1.109 0-2.205.058-3.29.153v-37.087c.001-13.52 3.797-26.699 10.977-38.112zm19.024 38.112c0-23.043 18.747-41.79 41.79-41.79 11.156 0 21.65 4.346 29.547 12.233 7.895 7.896 12.243 18.393 12.243 29.557v36.935h-83.58zm-26.71 51.935h137c12.407 0 22.5 10.093 22.5 22.5v87c0 12.407-10.093 22.5-22.5 22.5h-137c-12.407 0-22.5-10.093-22.5-22.5v-87c0-12.407 10.094-22.5 22.5-22.5z" fill="#ffffff" data-original="#000000" style="" class=""/></g></g></svg>
